<mxfile host="app.diagrams.net" modified="2023-01-31T20:20:58.027Z" agent="5.0 (Windows NT 10.0; Win64; x64) AppleWebKit/537.36 (KHTML, like Gecko) Chrome/109.0.0.0 Safari/537.36" etag="CuTJFpWOzLiIBl73HYY_" version="20.8.13" type="github">
  <diagram name="Page-1" id="AdRLsiDeHnI61Sd83OET">
    <mxGraphModel dx="1450" dy="985" grid="1" gridSize="10" guides="1" tooltips="1" connect="1" arrows="1" fold="1" page="0" pageScale="1" pageWidth="850" pageHeight="1100" math="0" shadow="0">
      <root>
        <mxCell id="0" />
        <mxCell id="1" parent="0" />
        <mxCell id="c4jTNOC0Oyew-YXJtR_K-36" style="edgeStyle=orthogonalEdgeStyle;rounded=0;orthogonalLoop=1;jettySize=auto;html=1;fontSize=10;labelBackgroundColor=#18141D;strokeColor=#FF0000;" parent="1" source="c4jTNOC0Oyew-YXJtR_K-2" edge="1">
          <mxGeometry relative="1" as="geometry">
            <mxPoint x="880" y="40" as="targetPoint" />
            <Array as="points">
              <mxPoint x="880" y="-90" />
              <mxPoint x="880" y="40" />
            </Array>
          </mxGeometry>
        </mxCell>
        <mxCell id="c4jTNOC0Oyew-YXJtR_K-38" value="//internal data" style="edgeLabel;html=1;align=center;verticalAlign=middle;resizable=0;points=[];fontSize=11;fontColor=default;labelBackgroundColor=default;" parent="c4jTNOC0Oyew-YXJtR_K-36" vertex="1" connectable="0">
          <mxGeometry x="-0.3469" y="1" relative="1" as="geometry">
            <mxPoint as="offset" />
          </mxGeometry>
        </mxCell>
        <mxCell id="c4jTNOC0Oyew-YXJtR_K-2" value="" style="ellipse;html=1;shape=startState;fillColor=#000000;strokeColor=#ff0000;" parent="1" vertex="1">
          <mxGeometry x="500" y="-110" width="40" height="40" as="geometry" />
        </mxCell>
        <mxCell id="c4jTNOC0Oyew-YXJtR_K-3" value="" style="edgeStyle=orthogonalEdgeStyle;html=1;verticalAlign=bottom;endArrow=open;endSize=8;strokeColor=#ff0000;rounded=0;entryX=0.512;entryY=-0.004;entryDx=0;entryDy=0;entryPerimeter=0;" parent="1" source="c4jTNOC0Oyew-YXJtR_K-2" target="c4jTNOC0Oyew-YXJtR_K-34" edge="1">
          <mxGeometry relative="1" as="geometry">
            <mxPoint x="76.10000000000014" y="29.579999999999927" as="targetPoint" />
          </mxGeometry>
        </mxCell>
        <mxCell id="c4jTNOC0Oyew-YXJtR_K-5" value="//external data" style="edgeLabel;html=1;align=center;verticalAlign=middle;resizable=0;points=[];" parent="c4jTNOC0Oyew-YXJtR_K-3" vertex="1" connectable="0">
          <mxGeometry x="0.1057" y="1" relative="1" as="geometry">
            <mxPoint x="156" y="-1" as="offset" />
          </mxGeometry>
        </mxCell>
        <mxCell id="c4jTNOC0Oyew-YXJtR_K-14" style="edgeStyle=orthogonalEdgeStyle;rounded=0;orthogonalLoop=1;jettySize=auto;html=1;" parent="1" source="c4jTNOC0Oyew-YXJtR_K-12" target="c4jTNOC0Oyew-YXJtR_K-13" edge="1">
          <mxGeometry relative="1" as="geometry" />
        </mxCell>
        <mxCell id="c4jTNOC0Oyew-YXJtR_K-12" value=":user" style="fontStyle=1;fillColor=none;" parent="1" vertex="1">
          <mxGeometry x="-50" y="100" width="150" height="40" as="geometry" />
        </mxCell>
        <mxCell id="c4jTNOC0Oyew-YXJtR_K-13" value="" style="html=1;points=[];perimeter=orthogonalPerimeter;fillColor=strokeColor;" parent="1" vertex="1">
          <mxGeometry x="22.5" y="170" width="5" height="260" as="geometry" />
        </mxCell>
        <mxCell id="c4jTNOC0Oyew-YXJtR_K-16" style="edgeStyle=orthogonalEdgeStyle;rounded=0;orthogonalLoop=1;jettySize=auto;html=1;" parent="1" source="c4jTNOC0Oyew-YXJtR_K-17" target="c4jTNOC0Oyew-YXJtR_K-18" edge="1">
          <mxGeometry relative="1" as="geometry" />
        </mxCell>
        <mxCell id="c4jTNOC0Oyew-YXJtR_K-17" value=":getRequest" style="fontStyle=1;fillColor=none;" parent="1" vertex="1">
          <mxGeometry x="230" y="100" width="150" height="40" as="geometry" />
        </mxCell>
        <mxCell id="c4jTNOC0Oyew-YXJtR_K-18" value="" style="html=1;points=[];perimeter=orthogonalPerimeter;fillColor=strokeColor;" parent="1" vertex="1">
          <mxGeometry x="302.5" y="170" width="5" height="260" as="geometry" />
        </mxCell>
        <mxCell id="c4jTNOC0Oyew-YXJtR_K-20" value="" style="edgeStyle=none;orthogonalLoop=1;jettySize=auto;html=1;rounded=0;" parent="1" edge="1">
          <mxGeometry width="100" relative="1" as="geometry">
            <mxPoint x="22.5" y="200" as="sourcePoint" />
            <mxPoint x="300" y="200" as="targetPoint" />
            <Array as="points" />
          </mxGeometry>
        </mxCell>
        <mxCell id="c4jTNOC0Oyew-YXJtR_K-21" value="Give request" style="edgeLabel;html=1;align=center;verticalAlign=middle;resizable=0;points=[];" parent="c4jTNOC0Oyew-YXJtR_K-20" vertex="1" connectable="0">
          <mxGeometry x="-0.0844" y="2" relative="1" as="geometry">
            <mxPoint as="offset" />
          </mxGeometry>
        </mxCell>
        <mxCell id="c4jTNOC0Oyew-YXJtR_K-22" value="" style="edgeStyle=none;orthogonalLoop=1;jettySize=auto;html=1;rounded=0;" parent="1" edge="1">
          <mxGeometry width="100" relative="1" as="geometry">
            <mxPoint x="302.5" y="230" as="sourcePoint" />
            <mxPoint x="310" y="300" as="targetPoint" />
            <Array as="points">
              <mxPoint x="400" y="230" />
              <mxPoint x="400" y="300" />
            </Array>
          </mxGeometry>
        </mxCell>
        <mxCell id="c4jTNOC0Oyew-YXJtR_K-23" value="Process request" style="edgeLabel;html=1;align=center;verticalAlign=middle;resizable=0;points=[];" parent="c4jTNOC0Oyew-YXJtR_K-22" vertex="1" connectable="0">
          <mxGeometry x="-0.0844" y="2" relative="1" as="geometry">
            <mxPoint as="offset" />
          </mxGeometry>
        </mxCell>
        <mxCell id="c4jTNOC0Oyew-YXJtR_K-24" value="" style="edgeStyle=none;orthogonalLoop=1;jettySize=auto;html=1;rounded=0;exitX=0.977;exitY=0.585;exitDx=0;exitDy=0;exitPerimeter=0;entryX=-0.049;entryY=0.585;entryDx=0;entryDy=0;entryPerimeter=0;" parent="1" source="c4jTNOC0Oyew-YXJtR_K-13" target="c4jTNOC0Oyew-YXJtR_K-18" edge="1">
          <mxGeometry width="100" relative="1" as="geometry">
            <mxPoint x="27.5" y="320" as="sourcePoint" />
            <mxPoint x="280" y="310" as="targetPoint" />
            <Array as="points" />
          </mxGeometry>
        </mxCell>
        <mxCell id="c4jTNOC0Oyew-YXJtR_K-25" value="Gives name" style="edgeLabel;html=1;align=center;verticalAlign=middle;resizable=0;points=[];" parent="c4jTNOC0Oyew-YXJtR_K-24" vertex="1" connectable="0">
          <mxGeometry x="-0.0844" y="2" relative="1" as="geometry">
            <mxPoint x="-7" as="offset" />
          </mxGeometry>
        </mxCell>
        <mxCell id="c4jTNOC0Oyew-YXJtR_K-26" value="" style="edgeStyle=none;orthogonalLoop=1;jettySize=auto;html=1;rounded=0;exitX=1.022;exitY=0.681;exitDx=0;exitDy=0;exitPerimeter=0;entryX=-0.3;entryY=0.691;entryDx=0;entryDy=0;entryPerimeter=0;" parent="1" source="c4jTNOC0Oyew-YXJtR_K-13" target="c4jTNOC0Oyew-YXJtR_K-18" edge="1">
          <mxGeometry width="100" relative="1" as="geometry">
            <mxPoint x="37.38499999999976" y="332.0999999999999" as="sourcePoint" />
            <mxPoint x="312.2549999999999" y="332.0999999999999" as="targetPoint" />
            <Array as="points" />
          </mxGeometry>
        </mxCell>
        <mxCell id="c4jTNOC0Oyew-YXJtR_K-27" value="Gives class" style="edgeLabel;html=1;align=center;verticalAlign=middle;resizable=0;points=[];" parent="c4jTNOC0Oyew-YXJtR_K-26" vertex="1" connectable="0">
          <mxGeometry x="-0.0844" y="2" relative="1" as="geometry">
            <mxPoint x="-7" as="offset" />
          </mxGeometry>
        </mxCell>
        <mxCell id="c4jTNOC0Oyew-YXJtR_K-28" value="" style="edgeStyle=none;orthogonalLoop=1;jettySize=auto;html=1;rounded=0;exitX=0.767;exitY=0.763;exitDx=0;exitDy=0;exitPerimeter=0;" parent="1" source="c4jTNOC0Oyew-YXJtR_K-13" edge="1">
          <mxGeometry width="100" relative="1" as="geometry">
            <mxPoint x="37.610000000000014" y="357.05999999999995" as="sourcePoint" />
            <mxPoint x="305" y="370" as="targetPoint" />
            <Array as="points">
              <mxPoint x="210" y="371" />
            </Array>
          </mxGeometry>
        </mxCell>
        <mxCell id="c4jTNOC0Oyew-YXJtR_K-29" value="Gives type of request" style="edgeLabel;html=1;align=center;verticalAlign=middle;resizable=0;points=[];" parent="c4jTNOC0Oyew-YXJtR_K-28" vertex="1" connectable="0">
          <mxGeometry x="-0.0844" y="2" relative="1" as="geometry">
            <mxPoint x="-7" as="offset" />
          </mxGeometry>
        </mxCell>
        <mxCell id="c4jTNOC0Oyew-YXJtR_K-32" value="" style="edgeStyle=none;orthogonalLoop=1;jettySize=auto;html=1;rounded=0;exitX=0.162;exitY=0.935;exitDx=0;exitDy=0;exitPerimeter=0;entryX=1.21;entryY=0.921;entryDx=0;entryDy=0;entryPerimeter=0;" parent="1" source="c4jTNOC0Oyew-YXJtR_K-18" target="c4jTNOC0Oyew-YXJtR_K-13" edge="1">
          <mxGeometry width="100" relative="1" as="geometry">
            <mxPoint x="300" y="413" as="sourcePoint" />
            <mxPoint x="40" y="410" as="targetPoint" />
            <Array as="points" />
          </mxGeometry>
        </mxCell>
        <mxCell id="c4jTNOC0Oyew-YXJtR_K-33" value="Gives information about the request" style="edgeLabel;html=1;align=center;verticalAlign=middle;resizable=0;points=[];" parent="c4jTNOC0Oyew-YXJtR_K-32" vertex="1" connectable="0">
          <mxGeometry x="-0.0844" y="2" relative="1" as="geometry">
            <mxPoint x="-7" as="offset" />
          </mxGeometry>
        </mxCell>
        <mxCell id="c4jTNOC0Oyew-YXJtR_K-73" style="edgeStyle=orthogonalEdgeStyle;rounded=0;orthogonalLoop=1;jettySize=auto;html=1;entryX=0;entryY=0.5;entryDx=0;entryDy=0;labelBackgroundColor=#18141D;strokeColor=#000000;fontSize=10;fontColor=#FFFFFF;" parent="1" source="c4jTNOC0Oyew-YXJtR_K-34" target="c4jTNOC0Oyew-YXJtR_K-72" edge="1">
          <mxGeometry relative="1" as="geometry">
            <Array as="points">
              <mxPoint x="205" y="828" />
            </Array>
            <mxPoint x="204.67999999999984" y="390.0000000000001" as="sourcePoint" />
          </mxGeometry>
        </mxCell>
        <mxCell id="c4jTNOC0Oyew-YXJtR_K-34" value="User requests" style="shape=umlFrame;whiteSpace=wrap;html=1;width=120;height=30;boundedLbl=1;verticalAlign=middle;align=left;spacingLeft=5;fillColor=none;" parent="1" vertex="1">
          <mxGeometry x="-60" y="40" width="520" height="430" as="geometry" />
        </mxCell>
        <mxCell id="c4jTNOC0Oyew-YXJtR_K-35" value="Start" style="text;html=1;align=center;verticalAlign=middle;resizable=0;points=[];autosize=1;strokeColor=none;fillColor=none;fontSize=10;" parent="1" vertex="1">
          <mxGeometry x="500" y="-130" width="40" height="30" as="geometry" />
        </mxCell>
        <mxCell id="c4jTNOC0Oyew-YXJtR_K-58" style="edgeStyle=orthogonalEdgeStyle;rounded=0;orthogonalLoop=1;jettySize=auto;html=1;exitX=0;exitY=0.5;exitDx=0;exitDy=0;labelBackgroundColor=#18141D;strokeColor=#18141D;fontSize=10;fontColor=#FFFFFF;" parent="1" source="c4jTNOC0Oyew-YXJtR_K-40" target="c4jTNOC0Oyew-YXJtR_K-59" edge="1">
          <mxGeometry relative="1" as="geometry">
            <mxPoint x="640" y="610" as="targetPoint" />
            <mxPoint x="690" y="390" as="sourcePoint" />
          </mxGeometry>
        </mxCell>
        <mxCell id="c4jTNOC0Oyew-YXJtR_K-40" value=":service/IT" style="fontStyle=1;fillColor=none;" parent="1" vertex="1">
          <mxGeometry x="690" y="90" width="150" height="40" as="geometry" />
        </mxCell>
        <mxCell id="c4jTNOC0Oyew-YXJtR_K-43" value="" style="edgeStyle=orthogonalEdgeStyle;rounded=0;orthogonalLoop=1;jettySize=auto;html=1;labelBackgroundColor=#18141D;strokeColor=#f0f0f0f0;fontSize=10;fontColor=#FFFFFF;" parent="1" source="c4jTNOC0Oyew-YXJtR_K-40" target="c4jTNOC0Oyew-YXJtR_K-42" edge="1">
          <mxGeometry relative="1" as="geometry" />
        </mxCell>
        <mxCell id="c4jTNOC0Oyew-YXJtR_K-49" style="edgeStyle=orthogonalEdgeStyle;rounded=0;orthogonalLoop=1;jettySize=auto;html=1;labelBackgroundColor=#18141D;strokeColor=#000000;fontSize=10;fontColor=#0000000;exitX=1.146;exitY=0.125;exitDx=0;exitDy=0;exitPerimeter=0;entryX=-0.077;entryY=0.125;entryDx=0;entryDy=0;entryPerimeter=0;" parent="1" source="c4jTNOC0Oyew-YXJtR_K-42" target="c4jTNOC0Oyew-YXJtR_K-46" edge="1">
          <mxGeometry relative="1" as="geometry">
            <mxPoint x="970" y="240" as="targetPoint" />
          </mxGeometry>
        </mxCell>
        <mxCell id="c4jTNOC0Oyew-YXJtR_K-50" value="Checks the db for request" style="edgeLabel;html=1;align=center;verticalAlign=middle;resizable=0;points=[];fontSize=10;fontColor=#0000000;" parent="c4jTNOC0Oyew-YXJtR_K-49" vertex="1" connectable="0">
          <mxGeometry x="-0.0942" relative="1" as="geometry">
            <mxPoint as="offset" />
          </mxGeometry>
        </mxCell>
        <mxCell id="c4jTNOC0Oyew-YXJtR_K-54" style="edgeStyle=orthogonalEdgeStyle;rounded=0;orthogonalLoop=1;jettySize=auto;html=1;entryX=1.062;entryY=0.75;entryDx=0;entryDy=0;entryPerimeter=0;labelBackgroundColor=#18141D;strokeColor=#000000;fontSize=10;fontColor=#0000000;exitX=-0.5;exitY=0.75;exitDx=0;exitDy=0;exitPerimeter=0;" parent="1" source="c4jTNOC0Oyew-YXJtR_K-46" target="c4jTNOC0Oyew-YXJtR_K-42" edge="1">
          <mxGeometry relative="1" as="geometry" />
        </mxCell>
        <mxCell id="c4jTNOC0Oyew-YXJtR_K-55" value="Gives information" style="edgeLabel;html=1;align=center;verticalAlign=middle;resizable=0;points=[];fontSize=10;fontColor=#0000000;" parent="c4jTNOC0Oyew-YXJtR_K-54" vertex="1" connectable="0">
          <mxGeometry x="0.1069" relative="1" as="geometry">
            <mxPoint as="offset" />
          </mxGeometry>
        </mxCell>
        <mxCell id="c4jTNOC0Oyew-YXJtR_K-67" style="edgeStyle=orthogonalEdgeStyle;rounded=0;orthogonalLoop=1;jettySize=auto;html=1;entryX=0.014;entryY=0.945;entryDx=0;entryDy=0;entryPerimeter=0;labelBackgroundColor=#18141D;strokeColor=#000000;fontSize=10;fontColor=#0000000;" parent="1" target="c4jTNOC0Oyew-YXJtR_K-46" edge="1">
          <mxGeometry relative="1" as="geometry">
            <mxPoint x="770" y="387" as="sourcePoint" />
          </mxGeometry>
        </mxCell>
        <mxCell id="c4jTNOC0Oyew-YXJtR_K-68" value="Removes item/updates the db" style="edgeLabel;html=1;align=center;verticalAlign=middle;resizable=0;points=[];fontSize=10;fontColor=#0000000;" parent="c4jTNOC0Oyew-YXJtR_K-67" vertex="1" connectable="0">
          <mxGeometry x="-0.1879" y="-2" relative="1" as="geometry">
            <mxPoint x="8" as="offset" />
          </mxGeometry>
        </mxCell>
        <mxCell id="c4jTNOC0Oyew-YXJtR_K-42" value="" style="html=1;points=[];perimeter=orthogonalPerimeter;fillColor=strokeColor;fontSize=10;fontColor=#0000000;" parent="1" vertex="1">
          <mxGeometry x="762.5" y="160" width="5" height="240" as="geometry" />
        </mxCell>
        <mxCell id="c4jTNOC0Oyew-YXJtR_K-45" value=":database" style="fontStyle=1;fillColor=none;" parent="1" vertex="1">
          <mxGeometry x="900" y="90" width="150" height="40" as="geometry" />
        </mxCell>
        <mxCell id="c4jTNOC0Oyew-YXJtR_K-47" style="edgeStyle=orthogonalEdgeStyle;rounded=0;orthogonalLoop=1;jettySize=auto;html=1;labelBackgroundColor=#18141D;strokeColor=#000000;fontSize=10;fontColor=#0000000;exitX=0.5;exitY=1;exitDx=0;exitDy=0;" parent="1" source="c4jTNOC0Oyew-YXJtR_K-45" target="c4jTNOC0Oyew-YXJtR_K-46" edge="1">
          <mxGeometry relative="1" as="geometry" />
        </mxCell>
        <mxCell id="c4jTNOC0Oyew-YXJtR_K-46" value="" style="html=1;points=[];perimeter=orthogonalPerimeter;fillColor=strokeColor;fontSize=10;fontColor=#0000000;" parent="1" vertex="1">
          <mxGeometry x="972.5" y="160" width="5" height="240" as="geometry" />
        </mxCell>
        <mxCell id="c4jTNOC0Oyew-YXJtR_K-48" value="" style="endArrow=classic;html=1;rounded=0;labelBackgroundColor=#18141D;strokeColor=#000000;fontSize=10;fontColor=#FFFFFF;dashed=1;dashPattern=12 12;" parent="1" source="c4jTNOC0Oyew-YXJtR_K-34" edge="1">
          <mxGeometry width="50" height="50" relative="1" as="geometry">
            <mxPoint x="330" y="370" as="sourcePoint" />
            <mxPoint x="620" y="260" as="targetPoint" />
          </mxGeometry>
        </mxCell>
        <mxCell id="c4jTNOC0Oyew-YXJtR_K-51" value="" style="endArrow=classic;html=1;rounded=0;labelBackgroundColor=#18141D;strokeColor=#000000;fontSize=10;fontColor=#0000000;exitX=0.837;exitY=0.237;exitDx=0;exitDy=0;exitPerimeter=0;" parent="1" source="c4jTNOC0Oyew-YXJtR_K-46" edge="1">
          <mxGeometry width="50" height="50" relative="1" as="geometry">
            <mxPoint x="860" y="240" as="sourcePoint" />
            <mxPoint x="977" y="270" as="targetPoint" />
            <Array as="points">
              <mxPoint x="1080" y="217" />
              <mxPoint x="1080" y="235" />
              <mxPoint x="1080" y="270" />
            </Array>
          </mxGeometry>
        </mxCell>
        <mxCell id="c4jTNOC0Oyew-YXJtR_K-53" value="Checks everything about the item" style="edgeLabel;html=1;align=center;verticalAlign=middle;resizable=0;points=[];fontSize=10;fontColor=#0000000;" parent="c4jTNOC0Oyew-YXJtR_K-51" vertex="1" connectable="0">
          <mxGeometry x="-0.3043" relative="1" as="geometry">
            <mxPoint x="29" y="22" as="offset" />
          </mxGeometry>
        </mxCell>
        <mxCell id="c4jTNOC0Oyew-YXJtR_K-60" style="edgeStyle=orthogonalEdgeStyle;rounded=0;orthogonalLoop=1;jettySize=auto;html=1;labelBackgroundColor=#18141D;strokeColor=#000000;fontSize=10;fontColor=#FFFFFF;entryX=0.049;entryY=0.879;entryDx=0;entryDy=0;entryPerimeter=0;" parent="1" source="c4jTNOC0Oyew-YXJtR_K-59" target="c4jTNOC0Oyew-YXJtR_K-42" edge="1">
          <mxGeometry relative="1" as="geometry">
            <mxPoint x="720" y="720" as="targetPoint" />
          </mxGeometry>
        </mxCell>
        <mxCell id="c4jTNOC0Oyew-YXJtR_K-63" value="Approved" style="edgeLabel;html=1;align=center;verticalAlign=middle;resizable=0;points=[];fontSize=10;fontColor=#0000000;" parent="c4jTNOC0Oyew-YXJtR_K-60" vertex="1" connectable="0">
          <mxGeometry x="0.4385" y="-3" relative="1" as="geometry">
            <mxPoint as="offset" />
          </mxGeometry>
        </mxCell>
        <mxCell id="c4jTNOC0Oyew-YXJtR_K-61" style="edgeStyle=orthogonalEdgeStyle;rounded=0;orthogonalLoop=1;jettySize=auto;html=1;labelBackgroundColor=#18141D;strokeColor=#000000;fontSize=10;fontColor=#FFFFFF;" parent="1" source="c4jTNOC0Oyew-YXJtR_K-59" target="c4jTNOC0Oyew-YXJtR_K-64" edge="1">
          <mxGeometry relative="1" as="geometry">
            <mxPoint x="560" y="637.85" as="targetPoint" />
          </mxGeometry>
        </mxCell>
        <mxCell id="c4jTNOC0Oyew-YXJtR_K-62" value="&lt;font color=&quot;#000000&quot;&gt;Not approved&lt;/font&gt;" style="edgeLabel;html=1;align=center;verticalAlign=middle;resizable=0;points=[];fontSize=10;fontColor=#FFFFFF;" parent="c4jTNOC0Oyew-YXJtR_K-61" vertex="1" connectable="0">
          <mxGeometry x="0.469" relative="1" as="geometry">
            <mxPoint as="offset" />
          </mxGeometry>
        </mxCell>
        <mxCell id="c4jTNOC0Oyew-YXJtR_K-59" value="&lt;font color=&quot;#000000&quot;&gt;Asks HR&lt;/font&gt;" style="rhombus;whiteSpace=wrap;html=1;fontSize=10;fontColor=#FFFFFF;fillColor=none;" parent="1" vertex="1">
          <mxGeometry x="600" y="520" width="80" height="80" as="geometry" />
        </mxCell>
        <mxCell id="c4jTNOC0Oyew-YXJtR_K-64" value="" style="ellipse;html=1;shape=endState;fillColor=#000000;strokeColor=#ff0000;fontSize=10;fontColor=#FFFFFF;" parent="1" vertex="1">
          <mxGeometry x="540" y="657.85" width="40" height="40" as="geometry" />
        </mxCell>
        <mxCell id="c4jTNOC0Oyew-YXJtR_K-71" style="edgeStyle=orthogonalEdgeStyle;rounded=0;orthogonalLoop=1;jettySize=auto;html=1;labelBackgroundColor=#18141D;strokeColor=#000000;fontSize=10;fontColor=#FFFFFF;entryX=1;entryY=0.5;entryDx=0;entryDy=0;exitX=0.514;exitY=1.004;exitDx=0;exitDy=0;exitPerimeter=0;" parent="1" source="c4jTNOC0Oyew-YXJtR_K-69" target="c4jTNOC0Oyew-YXJtR_K-72" edge="1">
          <mxGeometry relative="1" as="geometry">
            <mxPoint x="700" y="757.85" as="targetPoint" />
            <Array as="points">
              <mxPoint x="913" y="494" />
              <mxPoint x="914" y="494" />
              <mxPoint x="914" y="828" />
            </Array>
            <mxPoint x="914.1199999999999" y="411.37" as="sourcePoint" />
          </mxGeometry>
        </mxCell>
        <mxCell id="c4jTNOC0Oyew-YXJtR_K-69" value="Service/IT requests" style="shape=umlFrame;whiteSpace=wrap;html=1;width=120;height=30;boundedLbl=1;verticalAlign=middle;align=left;spacingLeft=5;fillColor=none;" parent="1" vertex="1">
          <mxGeometry x="620" y="50" width="570" height="440" as="geometry" />
        </mxCell>
        <mxCell id="c4jTNOC0Oyew-YXJtR_K-74" style="edgeStyle=orthogonalEdgeStyle;rounded=0;orthogonalLoop=1;jettySize=auto;html=1;exitX=0;exitY=1;exitDx=0;exitDy=0;labelBackgroundColor=#18141D;strokeColor=#000000;fontSize=10;fontColor=#FFFFFF;entryX=0.18;entryY=1.027;entryDx=0;entryDy=0;entryPerimeter=0;" parent="1" source="c4jTNOC0Oyew-YXJtR_K-72" target="c4jTNOC0Oyew-YXJtR_K-35" edge="1">
          <mxGeometry relative="1" as="geometry">
            <mxPoint x="40" y="920" as="targetPoint" />
            <Array as="points">
              <mxPoint x="-100" y="930" />
              <mxPoint x="-100" y="-130" />
              <mxPoint x="507" y="-130" />
            </Array>
          </mxGeometry>
        </mxCell>
        <mxCell id="c4jTNOC0Oyew-YXJtR_K-81" value="&lt;font color=&quot;#000000&quot;&gt;Yes&lt;/font&gt;" style="edgeLabel;html=1;align=center;verticalAlign=middle;resizable=0;points=[];fontSize=10;fontColor=#FFFFFF;" parent="c4jTNOC0Oyew-YXJtR_K-74" vertex="1" connectable="0">
          <mxGeometry x="-0.8655" relative="1" as="geometry">
            <mxPoint x="97" as="offset" />
          </mxGeometry>
        </mxCell>
        <mxCell id="c4jTNOC0Oyew-YXJtR_K-76" style="edgeStyle=orthogonalEdgeStyle;rounded=0;orthogonalLoop=1;jettySize=auto;html=1;exitX=1;exitY=1;exitDx=0;exitDy=0;labelBackgroundColor=#18141D;strokeColor=#000000;fontSize=10;fontColor=#FFFFFF;" parent="1" source="c4jTNOC0Oyew-YXJtR_K-72" edge="1">
          <mxGeometry relative="1" as="geometry">
            <mxPoint x="620" y="947.8499999999998" as="targetPoint" />
          </mxGeometry>
        </mxCell>
        <mxCell id="c4jTNOC0Oyew-YXJtR_K-77" value="&lt;font color=&quot;#000000&quot;&gt;No&lt;/font&gt;" style="edgeLabel;html=1;align=center;verticalAlign=middle;resizable=0;points=[];fontSize=10;fontColor=#FFFFFF;" parent="c4jTNOC0Oyew-YXJtR_K-76" vertex="1" connectable="0">
          <mxGeometry x="0.0861" y="-2" relative="1" as="geometry">
            <mxPoint as="offset" />
          </mxGeometry>
        </mxCell>
        <mxCell id="c4jTNOC0Oyew-YXJtR_K-72" value="&lt;font color=&quot;#000000&quot;&gt;More requests&lt;/font&gt;" style="rhombus;whiteSpace=wrap;html=1;fontSize=10;fontColor=#FFFFFF;fillColor=none;" parent="1" vertex="1">
          <mxGeometry x="510" y="787.85" width="80" height="80" as="geometry" />
        </mxCell>
        <mxCell id="c4jTNOC0Oyew-YXJtR_K-79" value="" style="ellipse;html=1;shape=endState;fillColor=#000000;strokeColor=#ff0000;fontSize=10;fontColor=#FFFFFF;" parent="1" vertex="1">
          <mxGeometry x="600" y="947.85" width="40" height="40" as="geometry" />
        </mxCell>
      </root>
    </mxGraphModel>
  </diagram>
</mxfile>
